<svg width="12" height="11" viewBox="0 0 12 11" fill="none" xmlns="http://www.w3.org/2000/svg">
<path fill-rule="evenodd" clip-rule="evenodd" d="M0.666687 11V2.33334C0.666687 1.80291 0.877401 1.2942 1.25247 0.91913C1.62755 0.544057 2.13625 0.333344 2.66669 0.333344H9.33335C9.86379 0.333344 10.3725 0.544057 10.7476 0.91913C11.1226 1.2942 11.3334 1.80291 11.3334 2.33334V6.33334C11.3334 6.86378 11.1226 7.37248 10.7476 7.74756C10.3725 8.12263 9.86379 8.33334 9.33335 8.33334H3.33335L0.666687 11ZM2.83335 3.00001C2.83335 2.72387 3.0572 2.50001 3.33335 2.50001H8.66668C8.94282 2.50001 9.16668 2.72387 9.16668 3.00001C9.16668 3.27615 8.94282 3.50001 8.66668 3.50001H3.33335C3.0572 3.50001 2.83335 3.27615 2.83335 3.00001ZM3.33335 5.16668C3.0572 5.16668 2.83335 5.39054 2.83335 5.66668C2.83335 5.94282 3.0572 6.16668 3.33335 6.16668H7.33335C7.60949 6.16668 7.83335 5.94282 7.83335 5.66668C7.83335 5.39054 7.60949 5.16668 7.33335 5.16668H3.33335Z" fill="#FF6861"/>
</svg>
